Le Roi et l'Oiseau

«THE KING AND THE MOCKINGBIRD»

.: INFO :.

Original Title: Le Roi et l'Oiseau
Country: France
Year: 1980                   
Genre: Animation
Director: Paul Grimault
Production: Paul Grimault
Distribution: Gaumont
Date of Release: 2003

.: CAST :.

Jean Martin: The Bird
Pascal Mazzotti: The King
Raymond Bussières: Police Chief
Agnès Viala: The shepherdess
Renaud Marx: The chimney sweep

.: STORYLINE :.

The huge kingdom of Takicardia is ruled by a king under the unwieldy title of Charles V + III = VIII + VIII = XVI. He’s a heartless ruler, hated by his people as much as he hates them. The king is fond of hunting, but is unfortunately cross-eyed – not that anyone would dare acknowledge this in front of him, as the numerous statues and paintings that adorn the palace and the land show. Occasionally the king does hit his target though, notably the wife of the bird, known only as "l'Oiseau", the narrator of the story who takes pleasure in taunting the terrible king at every opportunity.

In his secret apartment, the king dreams of the beautiful shepherdess whose painting he keeps on his wall, but the shepherdess is in love with the chimney sweep whose hated portrait is on the opposite wall. At night the paintings come to life and attempt to escape from the palace, but are pursued by a non-cross-eyed painting of the king that also has come to life, deposed the real king and has taken his place. He orders the capture of the shepherdess and the sweep, but the bird is there to help when called upon. They are pursued to the depths of the Lower City where the inhabitants have never seen the light of the sun and strange creatures including bat-police take up their chase.

.: SPECIFICS :.

General

Unique ID : 222010705758366757954975765924819431840 (0xA705B4E50347CDA9827BB1FACC92F1A0)
Format : Matroska
File size : 887 MiB
Duration : 1h 29mn
Overall bit rate : 1 392 Kbps
Encoded date : UTC 2011-04-22 13:50:00
Writing application : mkvmerge v4.6.0 ('Still Crazy After All These Years') built on Mar 10 2011 02:50:32
Writing library : libebml v1.2.0 + libmatroska v1.1.0

Video

ID : 4
Format : AVC
Format/Info : Advanced Video Codec
Format profile : Baseline@L5.1
Format settings, CABAC : No
Format settings, ReFrames : 1 frame
Format settings, GOP : M=1, N=50
Muxing mode : Header stripping
Codec ID : V_MPEG4/ISO/AVC
Duration : 1h 29mn
Bit rate : 916 Kbps
Nominal bit rate : 1 024 Kbps
Width : 752 pixels
Height : 560 pixels
Display aspect ratio : 4:3
Frame rate : 25.000 fps
Color space : YUV
Chroma subsampling : 4:2:0
Bit depth : 8 bits
Scan type : Progressive
Bits/(Pixel*Frame) : 0.087
Stream size : 584 MiB (66%)
Writing library : x264 core 57
Encoding settings : cabac=0 / ref=1 / deblock=0:0:0 / analyse=0x1:0 / me=dia /
subme=7 / brdo=0 / mixed_ref=0 / me_range=4 / chroma_me=0 / trellis=0 / 8x8dct=0 /
cqm=0 / deadzone=21,11 / chroma_qp_offset=0 / threads=1 / nr=0 / decimate=1 /
mbaff=0 / bframes=0 / keyint=50 / keyint_min=25 / scenecut=0 / rc=abr / bitrate=1024 /
ratetol=7.8 / rceq='tex^qComp' / qcomp=0.50 / qpmin=2 / qpmax=31 / qpstep=3 / ip_ratio=1.25

Audio

ID : 5
Format : AC-3
Format/Info : Audio Coding 3
Mode extension : CM (complete main)
Muxing mode : Header stripping
Codec ID : A_AC3
Duration : 1h 29mn
Bit rate mode : Constant
Bit rate : 448 Kbps
Channel(s) : 2 channels
Channel positions : Front: L R
Sampling rate : 48.0 KHz
Bit depth : 16 bits
Compression mode : Lossy
Stream size : 286 MiB (32%)
Language : French

Text #1

ID : 1
Format : UTF-8
Codec ID : S_TEXT/UTF8
Codec ID/Info : UTF-8 Plain Text
Title : Italian
Language : Italian

Text #2

ID : 2
Format : UTF-8
Codec ID : S_TEXT/UTF8
Codec ID/Info : UTF-8 Plain Text
Title : Portuguese
Language : Portuguese

Text #3

ID : 3
Format : UTF-8
Codec ID : S_TEXT/UTF8
Codec ID/Info : UTF-8 Plain Text
Title : Spanish
Language : Spanish

Text #4

ID : 6
Format : UTF-8
Codec ID : S_TEXT/UTF8
Codec ID/Info : UTF-8 Plain Text
Title : English
Language : English

Text #5

ID : 7
Format : UTF-8
Codec ID : S_TEXT/UTF8
Codec ID/Info : UTF-8 Plain Text
Title : French
Language : French